# xmcd CD database file
#
# Track frame offsets:
#	150
#	29887
#	68667
#	104342
#	144047
#	172450
#	215297
#	256472
#
# Disc length: 3809 seconds
#
# Revision: 2
# Processed by: cddbd v1.5.2PL0 Copyright (c) Steve Scherf et al.
# Submitted via: CDex 1.51
#
DISCID=770edf08
DTITLE=Natual Dreams - Natual Jazz
DYEAR=1999
DGENRE=Jazz
TTITLE0=Daydreamers Lullaby
TTITLE1=Mr. Cricket
TTITLE2=Redwood Blues
TTITLE3=Sparkles
TTITLE4=Wish You Were Here
TTITLE5=Soul Surfer
TTITLE6=Spring Changes
TTITLE7=Babbling Brooks
EXTD=YEAR: 1999
EXTT0=
EXTT1=
EXTT2=
EXTT3=
EXTT4=
EXTT5=
EXTT6=
EXTT7=
PLAYORDER=
